<svg t="1742655369162" class="icon" viewBox="0 0 1024 1024" version="1.1" xmlns="http://www.w3.org/2000/svg" p-id="15844" width="200" height="200"><path d="M387.440546 333.279142l-0.786872-276.97909c0-21.245555-18.098066-34.622386-39.343621-34.622387h-29.114279a37.769876 37.769876 0 0 0-37.769876 39.343621l1.573745 151.079504L91.576518 24.038283a52.720452 52.720452 0 0 0-74.752879 0 53.507324 53.507324 0 0 0 0 74.752879l188.849379 186.488762H60.101621A43.277983 43.277983 0 0 0 16.036766 326.984163V354.524697c0 21.245555 18.098066 39.343621 39.343621 39.343621l275.405345-1.573745h20.458683a36.196131 36.196131 0 0 0 26.753662-10.229341c7.868724-7.081852 9.442469-16.524321 9.442469-27.540535l-2.360617-18.884938 1.573745-1.573745z m413.108018 402.878677h144.784525c21.245555 0 40.917366-12.589959 44.064855-37.769876v-27.540535c0-21.245555-18.098066-39.343621-39.343621-39.343621l-272.257855 1.573745H677.009595l-19.67181-0.786872a36.196131 36.196131 0 0 0-26.753662 11.016214c-7.868724 6.294979-9.442469 15.737448-9.442469 26.753662l2.360617 19.67181-1.573745 0.786872 0.786873 273.044729c0 21.245555 18.098066 34.622386 39.34362 34.622386h27.540535c21.245555 0 38.556748-18.098066 37.769876-39.343621l-1.573745-147.932014 190.423125 188.84938a52.720452 52.720452 0 0 0 74.752879 0 52.720452 52.720452 0 0 0 0-74.75288l-190.423125-188.849379zM378.78495 643.306874a36.196131 36.196131 0 0 0-26.753662-11.016214h-20.458683l-275.405346-0.786873c-21.245555 0-39.343621 18.098066-39.34362 39.343621v27.540535c3.14749 25.179917 22.8193 37.769876 44.064855 37.769876h145.571397l-189.636252 188.849379a53.507324 53.507324 0 0 0 0 74.75288 52.720452 52.720452 0 0 0 74.752879 0l190.423125-187.275635-1.573745 148.718886c0 21.245555 15.737448 39.343621 37.769876 39.343621H346.523181c22.032428 0 39.343621-13.376831 39.34362-34.622386l1.573745-275.405346-1.573745-0.786872 2.360618-19.67181c0-10.229341-2.360617-20.458683-9.442469-26.753662z m251.799173-262.028515a36.196131 36.196131 0 0 0 26.753662 11.016214H677.009595l0.786873-0.786872 276.192217 1.573744c21.245555 0 39.343621-18.098066 39.343621-39.34362v-27.540535c-3.14749-25.179917-23.606172-39.343621-44.064855-39.343621H802.909182l188.062507-187.275635a52.720452 52.720452 0 0 0 0-74.752879 52.720452 52.720452 0 0 0-74.752879 0L726.582557 212.887662l0.786873-152.653248c0-21.245555-15.737448-39.343621-37.769876-39.343621h-26.753662c-22.032428 0-39.343621 13.376831-39.343621 34.622386L621.928526 333.279142l1.573745 1.573745-2.360617 18.884938c0 11.016214 2.360617 20.458683 9.442469 27.540534z" p-id="15845"></path></svg>