<svg t="1742655419685" class="icon" viewBox="0 0 1024 1024" version="1.1" xmlns="http://www.w3.org/2000/svg" p-id="17632" width="200" height="200"><path d="M179.00873 99.777639h59.834603a49.9208 49.9208 0 0 0 0-99.777639H47.794738A48.897439 48.897439 0 0 0 0.04858 49.888819v199.555278a47.810119 47.810119 0 1 0 95.524297 0v-95.940037l201.250219 212.986883a48.321799 48.321799 0 1 0 68.245346-68.437227z m664.384759 0.6396h-60.442223a50.2406 50.2406 0 0 1 0-100.417239H975.854701a49.217239 49.217239 0 0 1 48.257839 50.20862v201.154278a48.289819 48.289819 0 1 1-96.515678 0V154.78326l-203.360899 214.585884a48.801499 48.801499 0 1 1-68.948907-69.076827zM179.00873 924.222361h59.834603a49.9208 49.9208 0 0 1 0 99.777639H47.794738a48.897439 48.897439 0 0 1-47.746158-49.888819v-199.555278a47.810119 47.810119 0 1 1 95.524297 0v95.940037l201.250219-212.986883a48.321799 48.321799 0 1 1 68.245346 68.437227z m664.384759-0.6396h-60.442223a50.2406 50.2406 0 0 0 0 100.417239H975.854701a49.217239 49.217239 0 0 0 48.257839-50.20862v-201.154278a48.289819 48.289819 0 1 0-96.515678 0v96.579638l-203.360899-214.585884a48.801499 48.801499 0 1 0-68.948907 69.076827z" p-id="17633"></path></svg>