<svg t="1742655537617" class="icon" viewBox="0 0 1024 1024" version="1.1" xmlns="http://www.w3.org/2000/svg" p-id="23315" width="200" height="200"><path d="M384 853.333333H213.333333c-25.6 0-42.666667-17.066667-42.666666-42.666666V213.333333c0-25.6 17.066667-42.666667 42.666666-42.666666h170.666667c25.6 0 42.666667-17.066667 42.666667-42.666667s-17.066667-42.666667-42.666667-42.666667H213.333333C140.8 85.333333 85.333333 140.8 85.333333 213.333333v597.333334c0 72.533333 55.466667 128 128 128h170.666667c25.6 0 42.666667-17.066667 42.666667-42.666667s-17.066667-42.666667-42.666667-42.666667z" p-id="23316"></path><path d="M934.4 529.066667c4.266667-8.533333 4.266667-21.333333 0-34.133334-4.266667-4.266667-4.266667-8.533333-8.533333-12.8l-213.333334-213.333333c-17.066667-17.066667-42.666667-17.066667-59.733333 0s-17.066667 42.666667 0 59.733333l140.8 140.8H384c-25.6 0-42.666667 17.066667-42.666667 42.666667s17.066667 42.666667 42.666667 42.666667h409.6l-140.8 140.8c-17.066667 17.066667-17.066667 42.666667 0 59.733333 8.533333 8.533333 21.333333 12.8 29.866667 12.8 8.533333 0 21.333333-4.266667 29.866666-12.8l213.333334-213.333333c4.266667-4.266667 8.533333-8.533333 8.533333-12.8z" p-id="23317"></path></svg>