<svg t="1742655610354" class="icon" viewBox="0 0 1357 1024" version="1.1" xmlns="http://www.w3.org/2000/svg" p-id="26382" width="200" height="200"><path d="M320.376289 11.350361c-10.65947 95.935229-34.939373 171.143711-72.839711 224.441061l49.744193 34.939373c21.31894-27.240867 39.084723-62.772434 53.889542-106.594699h137.980916c-8.290699 43.822265-18.357976 81.722602-30.201831 114.293205l60.403662 17.173591c14.212627-49.744193 25.464289-100.080578 34.939374-150.416964V104.324627H367.159518c5.921928-25.464289 10.65947-53.297349 14.804819-82.906988L320.376289 11.350361z m-95.935229 464.279133l45.006651-45.598843c-24.872096-35.531566-47.967614-68.102169-70.47094-98.304 21.31894-56.850506 39.084723-121.399518 52.112964-193.647037V81.229108H30.794024v59.81147h159.892048c-8.290699 50.336386-18.950169 96.527422-31.978409 139.165302-31.97841-40.269108-61.588048-74.024096-88.236723-100.672772L29.609639 218.617831c36.715952 41.453494 71.063133 83.499181 104.225927 126.729253-29.017446 63.956819-66.917783 113.108819-113.701012 147.456l30.794024 55.666121c46.783229-37.900337 86.460145-88.828916 119.62294-152.785735a2687.34612 2687.34612 0 0 1 53.889542 79.946024z m150.416964-278.922795c-0.592193 74.616289-8.882892 135.612145-24.279904 182.987566-20.134554 55.073928-62.772434 101.857157-127.913638 140.94188l39.084723 47.967614c76.392867-44.414458 125.544867-100.672771 146.863807-168.77494 29.609639 65.733398 70.47094 121.991711 123.768289 168.77494l41.453494-48.559807c-68.694361-52.705157-116.661976-123.176096-145.087229-210.820627 4.737542-34.347181 7.106313-71.655325 7.106314-112.516626h-60.995856zM656.667759 24.378602l-41.453494 39.084723c43.230072 34.939373 76.392867 67.509976 100.080578 97.119615l42.63788-42.63788c-27.83306-31.386217-61.588048-62.772434-101.264964-93.566458z m354.131277 532.973494h126.13706l14.212627-58.627084c-15.397012 1.184386-36.715952 1.776578-65.141205 2.960964-28.425253 0.592193-55.66612 1.184386-82.906988 1.184385-48.559807 0-90.605494-0.592193-126.13706-1.184385-36.715952-1.184386-63.956819-6.51412-82.314795-14.804819-14.212627-7.698506-28.425253-19.542361-43.230073-35.531567-2.960964-3.553157-5.921928-5.921928-8.290698-8.290698V219.210024h-136.204338v55.666121h79.946024v164.037397c-24.872096 13.028241-51.520771 44.414458-81.130409 92.974265l43.822265 41.453494c30.794024-56.258313 52.112964-84.091373 63.956819-84.091373 7.106313 0 15.397012 4.737542 23.687711 15.397012 17.765783 20.134554 39.084723 33.754988 64.549012 40.861301 25.464289 6.51412 58.627084 10.067277 98.896193 10.65947 39.676916 0.592193 76.392867 1.184386 110.147855 1.184385zM788.134554 443.651084c56.258313-13.620434 105.410313-26.648675 148.048193-39.676915l-11.251663-58.034892a1553.148916 1553.148916 0 0 1-79.353831 24.872096V113.207518c41.453494-14.804819 74.024096-30.794024 98.896193-47.375422L910.126265 16.087904c-30.794024 21.31894-71.063133 40.269108-121.991711 56.258313v287.213494c0 14.804819-5.921928 24.872096-16.581397 29.609638l16.581397 54.481735z m286.621301-20.134554c36.123759 0 54.481735-20.726747 54.481735-62.180241v-310.901205H949.210988v436.446073h59.219277V104.916819h62.772434V348.900241c0 12.436048-5.329735 18.950169-15.989205 18.950169l-40.861301-2.960964 16.581397 58.627084h43.822265zM1.480482 800.249831L62.180241 1011.662651h37.012048l41.453494-159.003759h1.184386L182.987566 1011.662651h36.715952l60.995855-211.41282h-39.084722l-39.676916 160.780338h-1.184386l-41.74959-160.780338H123.176096L81.426506 961.030169h-1.184386L40.565205 800.249831H1.480482z m356.463036 54.185639c-22.799422 0-40.861301 7.698506-53.889542 23.391614-13.620434 15.397012-20.134554 34.347181-20.134554 57.146603 0 25.464289 7.106313 45.302747 21.318939 59.81147 13.324337 13.91653 31.386217 21.022843 54.185639 21.022843 20.430651 0 37.308145-5.921928 50.928578-17.469687 10.65947-9.475084 17.765783-21.615036 21.31894-35.827662h-33.754988c-4.145349 8.586795-8.586795 14.804819-13.620434 18.654072-6.51412 4.737542-14.804819 7.106313-25.168192 7.106313-12.139952 0-21.615036-3.849253-28.129157-11.251663-6.51412-7.40241-10.363373-18.357976-11.547759-32.570602h114.589301c0-27.536964-6.218024-49.152-18.357976-64.549012-13.324337-17.17359-32.570602-25.464289-57.738795-25.464289z m0.888289 27.536964c23.687711 0 37.012048 12.139952 39.973012 37.012048h-78.761638c2.072675-12.139952 6.218024-21.31894 12.436048-27.536964 6.51412-6.51412 15.100916-9.475084 26.352578-9.475084z m97.674795-85.867952V1011.662651h33.754988V796.104482h-33.754988z m133.810892 58.330988c-23.983807 0-42.63788 7.994602-55.962217 23.983807-12.436048 14.508723-18.654072 33.458892-18.654072 56.55441 0 23.687711 6.218024 42.933976 18.950168 57.738795 13.028241 15.397012 31.386217 23.095518 55.073928 23.095518 19.838458 0 35.827663-5.033639 47.671518-14.804819 12.139952-10.067277 20.134554-25.464289 23.687711-46.191036h-33.458891c-2.664867 22.207229-15.100916 33.458892-37.604241 33.458891-13.028241 0-22.799422-4.737542-29.313543-13.91653-7.106313-9.475084-10.363373-22.799422-10.363373-39.676916 0-16.581398 3.553157-29.609639 10.65947-38.788626 7.106313-9.475084 16.877494-13.91653 29.313542-13.91653 10.067277 0 18.357976 2.368771 24.576 7.106313 5.921928 4.737542 10.067277 11.843855 12.139952 21.615036h33.458891c-2.960964-19.246265-10.65947-33.458892-22.799421-42.933976-11.843855-8.882892-27.536964-13.324337-47.375422-13.324337z m161.335518 0c-23.391614 0-42.045687 7.40241-55.962217 22.799422-14.212627 15.100916-21.022843 34.347181-21.022843 58.034891 0 23.391614 6.810217 42.63788 20.726747 57.442699 14.212627 15.397012 32.866699 23.095518 56.258313 23.095518 23.095518 0 42.045687-7.698506 56.258313-23.095518 13.620434-14.804819 20.726747-34.051084 20.726747-57.442699 0-23.687711-7.106313-42.933976-21.022843-58.034891-14.212627-15.397012-32.866699-22.799422-55.962217-22.799422z m0 27.536964c13.91653 0 24.872096 5.329735 32.570602 16.581397 6.51412 9.475084 10.067277 21.911133 10.067278 36.715952 0 14.508723-3.553157 26.648675-10.067278 36.419856-7.698506 10.955566-18.654072 16.581398-32.570602 16.581397-14.212627 0-24.872096-5.625831-32.570602-16.581397-6.51412-9.475084-9.771181-21.615036-9.771181-36.419856s3.25706-27.240867 9.771181-36.715952c7.698506-11.251663 18.357976-16.581398 32.570602-16.581397z m174.659855-27.536964c-14.804819 0-28.721349 6.51412-41.453494 19.838458v-15.693109h-33.754987V1011.662651h33.754987v-91.78988c0-10.067277 2.960964-18.950169 8.882892-26.056482 5.921928-7.698506 13.620434-11.251663 23.391615-11.251662 20.134554 0 30.201831 11.547759 30.201831 34.939373V1011.662651h33.754988v-93.566458c0-11.251663 2.664867-19.838458 8.586795-26.056482 5.625831-6.51412 12.436048-9.475084 20.726747-9.475084 11.843855 0 20.134554 2.664867 25.464289 8.290698 5.033639 5.329735 7.698506 14.212627 7.698506 26.352579V1011.662651h33.754988v-100.376675c0-16.877494-5.329735-30.497928-15.397012-41.157398-10.65947-10.65947-23.687711-15.693108-39.380819-15.693108-10.363373 0-18.950169 1.776578-25.760386 5.329735-7.698506 3.553157-15.100916 10.067277-22.207229 19.542361-9.771181-16.581398-25.760386-24.872096-48.263711-24.872096z m244.538603 0c-22.799422 0-40.861301 7.698506-53.889542 23.391614-13.620434 15.397012-20.134554 34.347181-20.134555 57.146603 0 25.464289 7.106313 45.302747 21.31894 59.81147 13.324337 13.91653 31.386217 21.022843 54.185639 21.022843 20.430651 0 37.308145-5.921928 50.928578-17.469687 10.65947-9.475084 17.765783-21.615036 21.31894-35.827662h-33.754988c-4.145349 8.586795-8.586795 14.804819-13.620434 18.654072-6.51412 4.737542-14.804819 7.106313-25.168193 7.106313-12.139952 0-21.615036-3.849253-28.129156-11.251663-6.51412-7.40241-10.363373-18.357976-11.547759-32.570602h114.589301c0-27.536964-6.218024-49.152-18.357976-64.549012-13.324337-17.17359-32.570602-25.464289-57.738795-25.464289z m0.888289 27.536964c23.687711 0 37.012048 12.139952 39.973012 37.012048h-78.761638c2.072675-12.139952 6.218024-21.31894 12.436048-27.536964 6.51412-6.51412 15.100916-9.475084 26.352578-9.475084z m131.146024-81.722603l7.40241 150.713061h25.168193l7.402409-150.713061h-39.973012z m19.826121 166.702265c-6.51412 0-11.843855 2.072675-15.989205 6.218024-4.737542 4.145349-6.810217 9.475084-6.810217 15.989205s2.072675 11.843855 6.810217 15.989205c4.145349 4.145349 9.475084 6.51412 15.989205 6.514121s11.843855-2.072675 16.581397-6.218024c4.145349-4.145349 6.51412-9.771181 6.514121-16.285302s-2.368771-11.843855-6.514121-15.989205c-4.441446-4.145349-10.067277-6.218024-16.581397-6.218024z" fill="#3E4751" p-id="26383"></path></svg>